<?xml version="1.0" standalone="no"?>
<!DOCTYPE svg PUBLIC "-//W3C//DTD SVG 20010904//EN"
 "http://www.w3.org/TR/2001/REC-SVG-20010904/DTD/svg10.dtd">
<svg version="1.0" xmlns="http://www.w3.org/2000/svg"
 width="1280.000000pt" height="1280.000000pt" viewBox="0 0 1280.000000 1280.000000"
 preserveAspectRatio="xMidYMid meet">

<g transform="translate(0.000000,1280.000000) scale(0.100000,-0.100000)"
fill="#000000" stroke="none">
<path d="M3693 11493 c-279 -333 -373 -448 -371 -454 2 -6 535 -474 793 -698
84 -72 69 -70 122 -11 27 29 61 67 77 84 82 90 371 419 374 426 2 4 -39 43
-89 86 -51 44 -201 174 -334 289 -133 116 -268 233 -300 260 -33 28 -81 69
-107 93 -27 23 -53 42 -58 42 -4 0 -53 -53 -107 -117z"/>
<path d="M3243 10652 c-164 -188 -409 -475 -415 -487 -7 -11 119 -127 438
-402 50 -43 157 -136 288 -251 l141 -123 44 48 c24 26 63 71 85 99 23 28 110
133 194 233 83 100 152 186 152 190 0 4 -46 48 -102 98 -57 50 -114 101 -128
115 -14 13 -128 116 -255 228 -126 113 -250 223 -275 246 -25 23 -57 52 -72
63 l-26 21 -69 -78z"/>
<path d="M9715 9994 c-225 -179 -412 -327 -414 -329 -2 -2 39 -52 90 -110 52
-59 117 -133 144 -165 28 -32 91 -104 140 -160 50 -56 113 -128 140 -160 95
-110 180 -207 285 -326 58 -65 204 -231 325 -369 120 -137 237 -270 259 -295
23 -25 108 -123 190 -218 93 -107 154 -168 160 -163 29 21 602 475 610 482 9
8 -33 74 -178 274 -44 61 -118 164 -165 230 -107 151 -203 285 -317 445 -50
69 -128 179 -175 245 -47 66 -126 176 -175 245 -50 69 -130 181 -179 250 -49
69 -136 190 -193 270 -57 79 -108 152 -113 162 -5 10 -13 18 -17 18 -4 -1
-191 -147 -417 -326z"/>
<path d="M830 9558 c-1 -200 -3 -392 -5 -428 -2 -36 -6 -364 -9 -730 -4 -366
-8 -771 -11 -900 -3 -129 -7 -458 -10 -730 -10 -938 -15 -1376 -21 -1652 l-5
-277 33 -5 c18 -3 96 -8 173 -11 77 -3 163 -8 190 -10 28 -2 106 -7 175 -10
69 -3 193 -10 275 -15 147 -9 430 -25 693 -38 114 -6 132 -5 132 8 0 8 5 69
10 135 5 66 12 149 15 185 2 36 12 167 21 293 10 125 15 229 12 232 -3 3 -101
10 -219 16 -118 7 -217 15 -221 18 -6 6 -13 320 -23 1156 -20 1619 -20 1478 1
1471 461 -145 1319 -355 1904 -466 91 -17 199 -37 240 -45 303 -58 855 -141
1430 -215 357 -45 961 -107 1231 -126 l97 -7 4 49 c3 27 6 159 7 294 1 135 3
265 5 290 2 25 5 173 7 330 l2 285 -69 6 c-38 4 -123 7 -189 8 -179 2 -702 46
-1030 87 -968 120 -1945 324 -3115 649 -534 149 -1257 366 -1668 501 -23 8
-47 14 -52 14 -6 0 -10 -137 -10 -362z"/>
<path d="M8094 8236 c-171 -49 -343 -223 -454 -459 -94 -201 -104 -361 -33
-521 l27 -58 -35 -29 c-19 -16 -38 -27 -42 -26 -5 1 -24 31 -43 66 -19 35 -49
88 -67 119 -18 32 -41 74 -52 95 -11 20 -24 37 -29 37 -5 0 -37 -15 -70 -34
-60 -33 -115 -63 -271 -146 -44 -24 -102 -55 -130 -70 -27 -15 -87 -47 -132
-71 -46 -24 -83 -47 -83 -52 0 -5 38 -83 85 -175 46 -91 83 -168 81 -169 -1
-2 -42 13 -90 32 -125 51 -235 75 -342 75 -119 0 -190 -22 -319 -99 -110 -65
-172 -120 -250 -226 -104 -139 -129 -219 -128 -410 1 -237 31 -334 138 -445
40 -41 150 -172 245 -290 95 -118 176 -219 180 -223 4 -5 231 172 505 393 273
221 503 404 510 406 9 4 37 -30 78 -93 35 -54 89 -134 120 -177 l56 -79 -30
-51 c-50 -86 -118 -225 -165 -339 -193 -472 -217 -954 -67 -1337 139 -356 365
-615 658 -756 243 -117 486 -140 770 -74 356 83 722 341 933 658 172 260 262
507 307 845 17 135 20 433 5 588 -12 123 -50 371 -59 381 -3 4 -170 -27 -371
-68 -201 -41 -369 -74 -374 -74 -5 0 -6 -19 -3 -42 28 -190 47 -351 44 -354
-15 -15 -377 325 -552 520 l-90 98 40 35 c64 54 223 158 308 199 l78 39 41
-50 c63 -75 123 -131 182 -171 29 -19 58 -46 64 -60 7 -13 18 -24 26 -24 17 0
60 56 52 69 -3 5 3 33 13 62 10 30 26 100 36 157 l18 102 41 0 c288 -1 606
-204 821 -525 55 -83 140 -253 131 -262 -4 -4 -73 -28 -154 -53 -139 -44 -147
-48 -144 -71 3 -30 152 -501 162 -512 4 -5 200 55 436 131 236 77 469 152 517
167 l89 28 -7 56 c-8 65 -26 155 -62 301 -117 478 -407 926 -778 1207 -199
150 -403 243 -645 295 -123 26 -399 36 -537 19 -381 -47 -763 -205 -1086 -449
-55 -41 -102 -70 -106 -66 -5 5 -39 55 -77 112 -38 57 -73 110 -79 117 -6 10
-6 18 0 23 6 5 313 251 683 547 421 337 671 543 668 551 -5 13 -411 520 -447
558 -18 19 -19 19 -76 -26 l-59 -46 -163 69 c-273 116 -346 133 -447 105z
m361 -196 c61 -18 120 -37 132 -44 20 -10 -9 -35 -369 -326 -215 -173 -397
-319 -404 -323 -22 -13 -35 35 -46 160 -8 95 -7 121 7 170 27 93 84 193 145
254 48 47 67 58 123 73 37 10 78 27 91 37 13 10 35 23 48 29 39 17 157 4 273
-30z m-1885 -1412 c35 -17 72 -22 170 -27 75 -4 124 -10 123 -16 -3 -12 -946
-774 -952 -769 -2 2 -7 34 -11 71 -4 38 -13 94 -19 126 -21 102 13 211 114
362 105 158 230 254 331 256 27 0 58 4 69 9 39 17 128 11 175 -12z m2786 -685
c-2 -10 -12 -56 -21 -102 -9 -46 -25 -104 -36 -128 l-19 -44 -27 18 c-64 40
-99 71 -155 138 l-59 70 53 17 c72 25 175 46 226 47 37 1 43 -2 38 -16z
m-1136 -1151 c164 -168 272 -265 450 -408 87 -69 238 -179 293 -213 44 -27 45
-34 13 -75 -216 -283 -521 -368 -733 -204 -107 82 -194 229 -228 383 -28 127
-17 352 24 509 32 121 37 136 49 136 3 0 63 -58 132 -128z"/>
<path d="M11605 7608 c-192 -153 -349 -283 -348 -288 4 -16 471 -601 480 -601
16 -1 702 546 700 558 -2 11 -465 601 -476 607 -3 2 -163 -123 -356 -276z"/>
</g>
</svg>
